<svg width="24" height="24" viewBox="0 0 24 24" fill="none" xmlns="http://www.w3.org/2000/svg">
<path fill-rule="evenodd" clip-rule="evenodd" d="M11.6647 18.6316L5.7334 21.8811C5.25983 22.1272 4.6764 21.953 4.41532 21.4875V21.4875C4.33979 21.3433 4.29904 21.1834 4.29633 21.0206V6.62247C4.29633 3.87647 6.17276 2.77808 8.87298 2.77808H15.2162C17.8341 2.77808 19.7929 3.80325 19.7929 6.4394V21.0206C19.7929 21.2804 19.6897 21.5295 19.506 21.7132C19.3224 21.8969 19.0732 22 18.8135 22C18.6478 21.9974 18.4849 21.9567 18.3375 21.8811L12.3696 18.6316C12.1496 18.5128 11.8847 18.5128 11.6647 18.6316Z" stroke="#9E9E9E" stroke-width="1.5" stroke-linecap="round" stroke-linejoin="round"/>
<path d="M8.36957 9.32266H15.6648" stroke="#9E9E9E" stroke-width="1.5" stroke-linecap="round" stroke-linejoin="round"/>
</svg>
