<svg width="126" height="126" viewBox="0 0 126 126" fill="none" xmlns="http://www.w3.org/2000/svg">
<path fill-rule="evenodd" clip-rule="evenodd" d="M10.5 63C10.5 34.0252 34.02 10.5 63 10.5C92.0325 10.5 115.5 34.0252 115.5 63C115.5 91.9853 92.0325 115.5 63 115.5C34.02 115.5 10.5 91.9853 10.5 63ZM58.3805 43.1028C58.3805 40.5881 60.4805 38.4828 63.0005 38.4828C65.5205 38.4828 67.568 40.5881 67.568 43.1028V66.3078C67.568 68.8331 65.5205 70.8753 63.0005 70.8753C60.4805 70.8753 58.3805 68.8331 58.3805 66.3078V43.1028ZM63.052 87.578C60.4795 87.578 58.432 85.478 58.432 82.958C58.432 80.438 60.4795 78.3905 62.9995 78.3905C65.572 78.3905 67.6195 80.438 67.6195 82.958C67.6195 85.478 65.572 87.578 63.052 87.578Z" fill="black"/>
</svg>
