<svg width="20" height="20" viewBox="0 0 20 20" fill="none" xmlns="http://www.w3.org/2000/svg">
<ellipse cx="9.64893" cy="6.06568" rx="3.98169" ry="3.98169" stroke="black" stroke-width="1.5" stroke-linecap="round" stroke-linejoin="round"/>
<path fill-rule="evenodd" clip-rule="evenodd" d="M3.33327 15.5856C3.3322 15.3057 3.3948 15.0292 3.51633 14.7771C3.89772 14.0143 4.97324 13.61 5.86568 13.4269C6.50932 13.2896 7.16184 13.1978 7.81839 13.1523C9.03395 13.0456 10.2565 13.0456 11.4721 13.1523C12.1286 13.1984 12.7811 13.2901 13.4248 13.4269C14.3172 13.61 15.3928 13.9761 15.7742 14.7771C16.0186 15.2911 16.0186 15.8878 15.7742 16.4018C15.3928 17.2027 14.3172 17.5688 13.4248 17.7443C12.7819 17.8873 12.1292 17.9816 11.4721 18.0265C10.4827 18.1104 9.48874 18.1257 8.49726 18.0723C8.26843 18.0723 8.04722 18.0723 7.81839 18.0265C7.16378 17.9822 6.51352 17.8878 5.87331 17.7443C4.97324 17.5688 3.90535 17.2027 3.51633 16.4018C3.39542 16.1467 3.33288 15.8679 3.33327 15.5856Z" stroke="black" stroke-width="1.5" stroke-linecap="round" stroke-linejoin="round"/>
</svg>
