<svg viewBox="0 0 116 116" fill="none" xmlns="http://www.w3.org/2000/svg">
<path d="M86.6055 69.214C85.3537 70.4271 84.7785 72.1816 85.0637 73.9023L89.3605 97.6823C89.723 99.6978 88.8724 101.737 87.1855 102.902C85.5325 104.111 83.3334 104.256 81.5305 103.289L60.1237 92.124C59.3794 91.7276 58.5529 91.515 57.707 91.4908H56.3972C55.9429 91.5585 55.4982 91.7035 55.0922 91.9258L33.6805 103.144C32.622 103.676 31.4234 103.864 30.2489 103.676C27.3875 103.134 25.4784 100.408 25.9472 97.5325L30.2489 73.7525C30.534 72.0173 29.9589 70.2531 28.707 69.0206L11.2539 52.104C9.79421 50.6878 9.28671 48.5611 9.95371 46.6423C10.6014 44.7283 12.2544 43.3315 14.2505 43.0173L38.2722 39.5325C40.0992 39.344 41.7039 38.2323 42.5255 36.589L53.1105 14.8873C53.3619 14.404 53.6857 13.9593 54.0772 13.5823L54.5122 13.244C54.7394 12.9927 55.0004 12.7848 55.2904 12.6157L55.8172 12.4223L56.6389 12.084H58.6737C60.491 12.2725 62.0909 13.36 62.927 14.984L73.6522 36.589C74.4255 38.1695 75.9287 39.2666 77.6639 39.5325L101.686 43.0173C103.716 43.3073 105.412 44.709 106.084 46.6423C106.717 48.5805 106.171 50.7071 104.682 52.104L86.6055 69.214Z" fill="#200E32"/>
</svg>
