<svg viewBox="0 0 403 66" fill="none" xmlns="http://www.w3.org/2000/svg">
<path d="M0.0427586 1.78207H14.6414L26.4593 36.0193L28.8055 44.709H29.6745L32.1945 36.0193L44.5338 1.78207H59.1324L36.3655 64H22.1145L0.0427586 1.78207ZM70.5654 16.7283C69.4068 16.7283 68.3351 16.5255 67.3503 16.12C66.3654 15.6566 65.4965 15.0772 64.7434 14.3821C64.0482 13.629 63.4689 12.76 63.0054 11.7752C62.5999 10.7903 62.3971 9.71862 62.3971 8.56C62.3971 7.45931 62.5999 6.41655 63.0054 5.43172C63.4689 4.38896 64.0482 3.52 64.7434 2.82482C65.4965 2.07172 66.3654 1.49241 67.3503 1.08689C68.3351 0.623443 69.4068 0.391719 70.5654 0.391719C71.6661 0.391719 72.7089 0.623443 73.6937 1.08689C74.7365 1.49241 75.6054 2.07172 76.3006 2.82482C77.0537 3.52 77.633 4.38896 78.0385 5.43172C78.502 6.41655 78.7337 7.45931 78.7337 8.56C78.7337 9.71862 78.502 10.7903 78.0385 11.7752C77.633 12.76 77.0537 13.629 76.3006 14.3821C75.6054 15.0772 74.7365 15.6566 73.6937 16.12C72.7089 16.5255 71.6661 16.7283 70.5654 16.7283ZM64.0482 64V21.4207H77.0827V64H64.0482ZM87.5381 21.4207H99.7036V26.8083H100.573C101.731 24.9545 103.382 23.3903 105.526 22.1159C107.669 20.8414 110.044 20.2041 112.651 20.2041C113.752 20.2041 114.621 20.2331 115.258 20.291C115.953 20.349 116.59 20.5228 117.17 20.8124V33.4124C116.475 33.0648 115.664 32.7752 114.737 32.5434C113.868 32.3117 112.796 32.1959 111.522 32.1959C108.046 32.1959 105.352 33.2965 103.44 35.4979C101.528 37.6414 100.573 40.6248 100.573 44.4483V64H87.5381V21.4207ZM129.422 32.3697H121.949V21.4207H129.422V8.3862H142.457V21.4207H152.971V32.3697H142.457V46.7076C142.457 47.6345 142.573 48.5034 142.804 49.3145C143.036 50.0676 143.442 50.7048 144.021 51.2262C144.89 51.9793 146.019 52.3559 147.41 52.3559C148.337 52.3559 149.119 52.24 149.756 52.0083C150.393 51.7766 150.944 51.4869 151.407 51.1393L155.057 62.4359C153.551 63.131 151.928 63.6814 150.19 64.0869C148.453 64.4924 146.599 64.6952 144.629 64.6952C140.053 64.6952 136.432 63.3628 133.767 60.6979C132.377 59.3076 131.305 57.5986 130.552 55.571C129.799 53.4855 129.422 51.1972 129.422 48.7062V32.3697ZM190.992 58.6124H190.123C187.226 63.131 182.881 65.3903 177.088 65.3903C171.759 65.3903 167.79 63.6814 165.184 60.2634C162.577 56.8455 161.273 52.3559 161.273 46.7945V21.4207H174.308V45.3172C174.308 47.6345 174.858 49.5462 175.959 51.0524C177.059 52.5007 178.768 53.2248 181.086 53.2248C184.04 53.2248 186.27 52.0952 187.777 49.8359C189.341 47.5766 190.123 44.6221 190.123 40.9724V21.4207H203.157V64H190.992V58.6124ZM230.005 65.3903C227.05 65.3903 224.444 65.0428 222.184 64.3476C219.925 63.6524 217.955 62.7545 216.275 61.6538C214.653 60.4952 213.292 59.1917 212.191 57.7434C211.09 56.2372 210.25 54.731 209.671 53.2248L221.402 48.2717C222.213 50.2414 223.343 51.6897 224.791 52.6166C226.239 53.4855 227.977 53.92 230.005 53.92C231.743 53.92 233.075 53.6593 234.002 53.1379C234.987 52.5586 235.479 51.8345 235.479 50.9655C235.479 49.9807 235.016 49.2276 234.089 48.7062C233.162 48.1269 231.685 47.6055 229.657 47.1421L223.835 45.9255C222.445 45.6359 221.026 45.1724 219.577 44.5352C218.129 43.8979 216.797 43.0579 215.58 42.0152C214.364 40.9724 213.379 39.7559 212.626 38.3655C211.873 36.9172 211.496 35.2662 211.496 33.4124C211.496 31.3848 211.93 29.56 212.799 27.9379C213.726 26.2579 214.972 24.8386 216.536 23.68C218.1 22.5214 219.954 21.6234 222.097 20.9862C224.241 20.349 226.587 20.0303 229.136 20.0303C233.539 20.0303 237.333 20.8124 240.519 22.3765C243.706 23.8828 246.11 26.4317 247.732 30.0234L236.522 34.629C235.769 33.1228 234.697 32.0221 233.307 31.3269C231.975 30.6317 230.613 30.2841 229.223 30.2841C227.717 30.2841 226.5 30.5448 225.573 31.0662C224.646 31.5876 224.183 32.2248 224.183 32.9779C224.183 33.789 224.646 34.4552 225.573 34.9765C226.558 35.44 227.746 35.8455 229.136 36.1931L235.74 37.7572C240.085 38.8 243.329 40.48 245.473 42.7972C247.616 45.1145 248.688 47.8372 248.688 50.9655C248.688 52.8772 248.224 54.7021 247.297 56.44C246.428 58.1779 245.154 59.7131 243.474 61.0455C241.852 62.3779 239.882 63.4207 237.565 64.1738C235.306 64.9848 232.786 65.3903 230.005 65.3903ZM257.036 1.78207H282.323C285.103 1.78207 287.681 2.21655 290.057 3.08551C292.49 3.95448 294.575 5.1131 296.313 6.56138C298.051 8.00965 299.412 9.71862 300.397 11.6883C301.382 13.6 301.875 15.5986 301.875 17.6841C301.875 21.1021 301.035 23.9407 299.355 26.2C297.732 28.4593 295.792 30.1393 293.532 31.24V32.109C296.835 33.3255 299.412 35.1793 301.266 37.6703C303.178 40.1614 304.134 43.2317 304.134 46.8814C304.134 49.5462 303.583 51.9503 302.483 54.0938C301.44 56.1793 299.963 57.9752 298.051 59.4814C296.197 60.9297 293.967 62.0593 291.36 62.8703C288.811 63.6234 286.03 64 283.018 64H257.036V1.78207ZM281.019 26.4607C283.452 26.4607 285.335 25.9103 286.668 24.8097C288 23.709 288.666 22.1448 288.666 20.1172C288.666 18.0897 288 16.5255 286.668 15.4248C285.335 14.3241 283.568 13.7738 281.367 13.7738H270.592V26.4607H281.019ZM282.149 51.8345C287.768 51.8345 290.578 49.5172 290.578 44.8828C290.578 40.2483 287.652 37.931 281.801 37.931H270.592V51.8345H282.149ZM332.33 20.0303C335.632 20.0303 338.674 20.6097 341.455 21.7683C344.293 22.869 346.726 24.4331 348.754 26.4607C350.839 28.4303 352.432 30.8055 353.533 33.5862C354.692 36.3669 355.271 39.4083 355.271 42.7103C355.271 46.0124 354.692 49.0538 353.533 51.8345C352.432 54.6152 350.839 57.0193 348.754 59.0469C346.726 61.0166 344.293 62.5807 341.455 63.7393C338.674 64.84 335.632 65.3903 332.33 65.3903C329.028 65.3903 325.958 64.84 323.119 63.7393C320.339 62.5807 317.906 61.0166 315.82 59.0469C313.792 57.0193 312.199 54.6152 311.041 51.8345C309.94 49.0538 309.39 46.0124 309.39 42.7103C309.39 39.4083 309.94 36.3669 311.041 33.5862C312.199 30.8055 313.792 28.4303 315.82 26.4607C317.906 24.4331 320.339 22.869 323.119 21.7683C325.958 20.6097 329.028 20.0303 332.33 20.0303ZM332.33 53.2248C333.663 53.2248 334.908 52.9931 336.067 52.5297C337.284 52.0083 338.355 51.3131 339.282 50.4441C340.209 49.5172 340.933 48.4166 341.455 47.1421C341.976 45.8097 342.237 44.3324 342.237 42.7103C342.237 41.0883 341.976 39.64 341.455 38.3655C340.933 37.091 340.209 35.9903 339.282 35.0634C338.355 34.1366 337.284 33.4414 336.067 32.9779C334.908 32.4565 333.663 32.1959 332.33 32.1959C330.998 32.1959 329.724 32.4565 328.507 32.9779C327.348 33.4414 326.306 34.1366 325.379 35.0634C324.452 35.9903 323.728 37.091 323.206 38.3655C322.685 39.64 322.424 41.0883 322.424 42.7103C322.424 44.3324 322.685 45.8097 323.206 47.1421C323.728 48.4166 324.452 49.5172 325.379 50.4441C326.306 51.3131 327.348 52.0083 328.507 52.5297C329.724 52.9931 330.998 53.2248 332.33 53.2248ZM372.235 42.3628L357.636 21.4207H373.278L379.708 31.6745H380.577L386.486 21.4207H402.649L387.703 42.3628L402.562 64H387.094L380.403 53.6593H379.534L373.017 64H357.549L372.235 42.3628Z" fill="black"/>
</svg>
